{"title":"From Time to Time-AC3-XviD-DVDRip[Eng]2009 2Lions-Team","uid":5936885,"size":1462080297,"categoryP":"video","categoryS":"movies","magnet":"?xt=urn:btih:9ce6ef43c34e8274fde7cdc2a6966333f0a2c7bc&amp;dn=From+Time+to+Time-AC3-XviD-DVDRip%5BEng%5D2009+2Lions-Team&amp;tr=udp%3A%2F%2Ftracker.openbittorrent.com%3A80&amp;tr=udp%3A%2F%2Fopen.demonii.com%3A1337&amp;tr=udp%3A%2F%2Ftracker.coppersurfer.tk%3A6969&amp;tr=udp%3A%2F%2Fexodus.desync.com%3A6969","seeders":1,"leechers":0,"uploader":"FatFreddy31","files":-1,"time":1288998844,"description":"A haunting ghost story spanning two worlds, two centuries apart. When 13 year old Tolly finds he can mysteriously travel between the two, he begins an adventure that unlocks family secrets laid buried for generations.\n &lt;a href=&quot;\nhttp://www.imdb.com/title/tt1031241/&quot; rel=&quot;nofollow&quot; target=&quot;_NEW&quot;&gt;\nhttp://www.imdb.com/title/tt1031241/&lt;/a&gt;\n\nSubtitles (srt) : Dutch.\n\nFrom Time To Time speelt zich af in de negentiende eeuw, waar vrouwen die heel veel geld hadden, gevangen zaten in die rijkdom. Het verhaal volgt een 13-jarig jongetje, genaamd Tolly, dat tijdens een verblijf in het oude landhuis van zijn oma in aanraking komt met de geesten van enkele kinderen uit een ver verleden. Op mysterieuze wijze bevindt Tolly zich in twee werelden, die twee eeuwen gescheiden houdt. Hier legt hij familiegeheimen bloot, die generaties lang verborgen waren.\n &lt;a href=&quot;\nhttp://www.moviemeter.nl/film/58165&quot; rel=&quot;nofollow&quot; target=&quot;_NEW&quot;&gt;\nhttp://www.moviemeter.nl/film/58165&lt;/a&gt;\n\nOndertitels (srt) : Nederlands.\n\nGeneral\nComplete name                    : From Time to Time-AC3-XviD-DVDRip[Eng]2009 2Lions-Team\\From Time to Time-AC3-XviD-DVDRip[Eng]2009 2Lions-Team.avi\nFormat                           : AVI\nFormat/Info                      : Audio Video Interleave\nFile size                        : 1.36 GiB\nDuration                         : 1h 31mn\nOverall bit rate                 : 2 119 Kbps\nWriting application              : VirtualDubMod 1.5.4.1 (build 2178/release)\nWriting library                  : VirtualDubMod build 2178/release\n\nVideo\nID                               : 0\nFormat                           : MPEG-4 Visual\nFormat profile                   : Simple@L3\nFormat settings, BVOP            : No\nFormat settings, QPel            : No\nFormat settings, GMC             : No warppoints\nFormat settings, Matrix          : Default (H.263)\nCodec ID                         : XVID\nCodec ID/Hint                    : XviD\nDuration                         : 1h 31mn\nBit rate                         : 1 661 Kbps\nWidth                            : 720 pixels\nHeight                           : 400 pixels\nDisplay aspect ratio             : 16:9\nFrame rate                       : 25.000 fps\nResolution                       : 8 bits\nColorimetry                      : 4:2:0\nScan type                        : Progressive\nBits/(Pixel*Frame)               : 0.231\nStream size                      : 1.07 GiB (78%)\nWriting library                  : XviD 1.1.2 (UTC 2006-11-01)\n\nAudio\nID                               : 1\nFormat                           : AC-3\nFormat/Info                      : Audio Coding 3\nCodec ID                         : 2000\nDuration                         : 1h 31mn\nBit rate mode                    : Constant\nBit rate                         : 448 Kbps\nChannel(s)                       : 6 channels\nChannel positions                : Front: L C R, Surround: L R, LFE\nSampling rate                    : 48.0 KHz\nStream size                      : 295 MiB (21%)\nAlignment                        : Split accross interleaves\nInterleave, duration             : 40 ms (1.00 video frame)\nInterleave, preload duration     : 500 ms\n\nThanks to Just_4_fun_Team for the source.\n\nBrought to you by Gollum\n\nDON T HIT AND RUN Niet gelijk afhaken als de FILM binnen is blijf seeden. \n\nDon`t quit after you finished the download, but keep seeding\n\nThere are fake torrents from uploaders who use our team name.\nThose are not ours, or members from our team.\nWe 2Lions-Team are not responsible for the fake posts on our name\n\nWij 2Lions-Team zijn niet verantwoordelijk voor die zieke FAKE posten die op onze naam worden gedaan\n\nPlease check our site !!!\n\nto the fakers , get a life !!!","torrent":{"xt":"urn:btih:9ce6ef43c34e8274fde7cdc2a6966333f0a2c7bc","amp;dn":"From+Time+to+Time-AC3-XviD-DVDRip%5BEng%5D2009+2Lions-Team","amp;tr":["udp%3A%2F%2Ftracker.openbittorrent.com%3A80","udp%3A%2F%2Fopen.demonii.com%3A1337","udp%3A%2F%2Ftracker.coppersurfer.tk%3A6969","udp%3A%2F%2Fexodus.desync.com%3A6969"],"infoHash":"9ce6ef43c34e8274fde7cdc2a6966333f0a2c7bc","infoHashBuffer":{"type":"Buffer","data":[156,230,239,67,195,78,130,116,253,231,205,194,166,150,99,51,240,162,199,188]},"announce":[],"urlList":[]}}